<svg xmlns="http://www.w3.org/2000/svg" viewBox="0 0 157.4 141.95"><defs><style>.cls-1{fill:#fff;}.cls-2{fill:#efc37e;}.cls-3,.cls-5{fill:none;}.cls-3,.cls-5,.cls-6{stroke:#1b3d5c;stroke-linecap:round;stroke-width:3px;}.cls-3,.cls-6{stroke-miterlimit:10;}.cls-4{fill:#c8ddef;}.cls-5{stroke-linejoin:round;}.cls-6{fill:#1b3d5c;}.cls-7{fill:#163c5b;}</style></defs><g id="Layer_2" data-name="Layer 2"><g id="Layer_1-2" data-name="Layer 1"><g id="Layer_2-2" data-name="Layer 2"><path class="cls-1" d="M81,26.32l-5.72-2.39-4.75,1.19s-4-9.12-10.86-3.44S44.8,44.78,44.8,44.78L47.45,60s-19.18,40,27.82,41.24c0,0,1.07,13.13-3.31,16.47s10.62,2.2,23.15-13.37c0,0-3.1-9.62,3.89-9.62,9.23,0,19-20.83,21.58-20.83,5.53,0,22.34-8.19,23.12-22.06S121.68,36,116,43.93s1.2-9.61-8.93-16.06S91.45,23.11,81,26.32Z"/><g id="Group_154" data-name="Group 154"><path id="Path_1219" data-name="Path 1219" class="cls-2" d="M28.42,141.45c-1.33-7.48,17.38-13.1,22.46-19.24s-25.66,1.33-39.83-1.87S8.64,94.41,20.18,88s6.41-11.49,6.41-11.49S14.83,76,4.41,64.51.93,41.25,37,16.13,85.89,8.6,85.89,8.6s24.29-10.42,32.35-4.81,13.1,11.5,9.89,19S146,35.6,146,35.6s17.14,6.15,3.74,21.92S146,63.4,151.92,74.63s-6.15,19-15.24,28.33,12.83-3.74,13.1,0-27,13.9-21.6,24-19.78,9.35-20.85,6.41-5.08-2.94,1.34-11.22-16.84,5.08-19.25-4.81,19.78-9.89,22.19-20.59-10.43-2.11-10.43-2.11,11.2-6.27,13.35-15.62a27.73,27.73,0,0,0,1.36-6.86c5.29,0,19.29-.34,22.29-12.9s-4.1-14.38-6.59-15.32-10.41,1-15.75,5.52-4.28,6.15-4.28,6.15-5.08-2.14,0-12.83-7.22,4.81-7.49,2.14S98.73,41,102.74,34.62s1-7.17-6.33-7.57-10.78.53-14.25,2.67-4.82-2.67-4.82-2.67l-7.75,4.28s-1.12-8-7-6.14-15,20.55-15,20.55L50,62.32S39.09,78,50,89,76.18,99.58,76.18,99.58s4.66,10.67-.74,17.82-21.86,13.18-21.86,13.18"/><g id="Group_135" data-name="Group 135"><g id="icon-large"><g id="Layer_2-2-2" data-name="Layer 2-2"><g id="Layer_1-3" data-name="Layer 1-3"><path id="Path_1201" data-name="Path 1201" class="cls-3" d="M86.91,7.5c-4-5.14-14.84-10.43-33.38,0C37,16.81-33.72,51.91,26.67,75.16"/><path id="Path_1202" data-name="Path 1202" class="cls-3" d="M21.86,86.82s-38.68,41.31,10.55,34.63-5.46,9.24-2.35,19"/><path id="Path_1203" data-name="Path 1203" class="cls-3" d="M103.6,93.49c.8.3,15.37-.93,5.28,8.23s-25.15,14.12-16.15,18,18.87-2.49,15.37,3.1c-9.18,14.71,16.15,9,16.15,9"/><path id="Path_1204" data-name="Path 1204" class="cls-3" d="M92.65,7.5s25.09-14,35.3,2.32c6.74,10.83-1.1,11.34,3.09,17.4s23.14,6.41,24.56,15.24-2.51,13.47-7.67,16.26-3.41,6.06-3.41,6.06c5.12,8.82,22.67,11-1.09,30.58s12.89-1.08,7.14,7.92-26.24,11.65-22.2,23.6"/><circle id="Ellipse_137" data-name="Ellipse 137" class="cls-4" cx="96" cy="68.44" r="7.07"/><circle id="Ellipse_138" data-name="Ellipse 138" class="cls-4" cx="54" cy="69.85" r="5.66"/><path id="Path_1199" data-name="Path 1199" class="cls-3" d="M78.81,25.75s4.74-10.5-9.52-11.59C49,12.61,7.36,49.34,31.89,61.49S26,87.26,30.18,94.38s23.6,7.91,23.6,7.91"/><path id="Path_1205" data-name="Path 1205" class="cls-5" d="M48.94,45.2l1.83,16.62S34.4,92.3,74.34,97.12s43.62-26,43.62-26"/><path id="Path_1200" data-name="Path 1200" class="cls-3" d="M82.71,29.37s41-15.24,26.86,5.28,4.37,1.87,3,7S109,50,111.63,53.92"/><path id="Path_1206" data-name="Path 1206" class="cls-5" d="M70.46,61.05,67.35,65.2a1.7,1.7,0,0,0,.34,2.39h0a1.73,1.73,0,0,0,1,.35h1.83"/><path id="Path_1207" data-name="Path 1207" class="cls-3" d="M63.77,75.49s19.57,3.73,23-1.87"/><path id="Path_1208" data-name="Path 1208" class="cls-3" d="M78.06,97.69s5.44,16.61-2.79,20"/><path id="Path_1209" data-name="Path 1209" class="cls-3" d="M96.31,96.41s-4.56,5.28-1.2,7.91"/><path id="Path_1210" data-name="Path 1210" class="cls-3" d="M55.55,49s6.52-5.12,8.22-2.33"/><path id="Path_1211" data-name="Path 1211" class="cls-3" d="M94.93,44.78s-12.31-5.17-12,0"/><ellipse id="Ellipse_139" data-name="Ellipse 139" class="cls-6" cx="88.93" cy="55.54" rx="2.95" ry="3.73"/><ellipse id="Ellipse_140" data-name="Ellipse 140" class="cls-6" cx="61.61" cy="57.64" rx="2.95" ry="3.73"/><path id="Path_1212" data-name="Path 1212" class="cls-3" d="M116.46,49.11s16.77-12.88,21.58,2-17.39,21-22,17.56"/><line id="Line_14" data-name="Line 14" class="cls-3" x1="127.59" y1="49.73" x2="117.08" y2="59.98"/><line id="Line_15" data-name="Line 15" class="cls-3" x1="123.53" y1="53.85" x2="128.68" y2="57.88"/><line id="Line_16" data-name="Line 16" class="cls-3" x1="139.51" y1="50.48" x2="134.07" y2="51.26"/><path id="Path_1213" data-name="Path 1213" class="cls-3" d="M140.48,55.55c-.8.71-5.61,0-5.61,0"/><circle id="Ellipse_141" data-name="Ellipse 141" class="cls-7" cx="119.09" cy="65.31" r="1.49"/><circle id="Ellipse_142" data-name="Ellipse 142" class="cls-7" cx="128.43" cy="62.65" r="0.91"/><line id="Line_17" data-name="Line 17" class="cls-3" x1="124.18" y1="64.57" x2="124.95" y2="72.6"/><path id="Path_1214" data-name="Path 1214" class="cls-3" d="M70.53,29.53c-.7-2.7-7.13-17.56-25.5,21"/></g></g></g></g></g></g></g></g></svg>